<svg id="Layer_1" data-name="Layer 1" xmlns="http://www.w3.org/2000/svg" viewBox="0 0 534 438"><defs><style>.cls-1{fill:#ecebe2;}.cls-2{fill:#a3150a;}.cls-3{fill:#0c0440;}.cls-4{fill:#71cca0;}</style></defs><ellipse class="cls-1" cx="258.94" cy="204.6" rx="167.06" ry="164.5"/><path class="cls-2" d="M101.75,223.65c-.32-1.12-.64-2.24-1-3.35,2.49-.58,5-1.12,7.57-1.65q-.65-2.72-1.28-5.43,3.8-.91,7.7-1.74l1.47,6.39q3.85-.69,7.8-1.31c.13.63.27,1.26.4,1.88l-2.59.74c.38,1.7.76,3.41,1.13,5.11l1.8-.23q1.94,8.83,3.84,17.68l2.58-.1c.52,2.49,1.05,5,1.57,7.46h-26l-1.56-5.88,2.92.06-4.18-16.06,1.4-.34c-.32-1.25-.65-2.5-1-3.75"/><path class="cls-2" d="M133.1,248.35l-1.8-8.71c-.07-1.09-.13-2.18-.19-3.28l1.16-.07q-1.31-6.4-2.63-12.81l-.43.05c.15-.79.31-1.58.47-2.37l-.27-3.85q.5-3.57,1-7.2l.73-.11c-.17-.77-.33-1.53-.5-2.3l.89-.14c.14.77.28,1.54.43,2.31l.86-.13q2.34,4.8,4.62,9.72l1.08,3.07.84-.08c0-1.33,0-2.66,0-4,.29,1.3.57,2.6.86,3.91l2.89-.27c0-.81.07-1.62.11-2.43l-.42-2.51-1.29-7.71L141.1,207c0-.55.05-1.1.08-1.66-.15-.52-.3-1-.44-1.57-.14-.79-.27-1.59-.41-2.38.08-.29.15-.57.23-.85-.1-.57-.19-1.13-.28-1.69l.06-.73-.54-3.22c0-.53-.06-1.06-.08-1.6-.19-1.1-.37-2.2-.56-3.3-.06-.77-.13-1.55-.2-2.32s-.39-1.57-.58-2.36c0-.26-.09-.53-.14-.79l.35-.07c-.19-.79-.37-1.58-.56-2.36.08-.29.15-.58.24-.88.1.26.21.51.32.77l.21,2.43.37-.07.24,1.43c0,.6.07,1.2.11,1.8l.54,2.13c.18,1.12.37,2.23.55,3.34l.33.87c.19,1.13.37,2.27.56,3.4.13.46.27.92.41,1.37l.24,1.47.51.89c.11.72.23,1.44.35,2.16,0,.36,0,.71,0,1.07.14.52.29,1,.43,1.56.16,1,.31,1.92.47,2.87l1.32,8.25c.12.76.24,1.51.37,2.27s.51,1.75.76,2.63l3.25-.27c-.13-1.63-.25-3.26-.38-4.89.28,1.07.55,2.14.83,3.22l1-.09q.69-6.64,1.5-13.39l.71-.07-.3-2.27,1-.31.27,2,.78.36c1.18,2.11,2.34,4.25,3.5,6.39.37,1.65.75,3.3,1.12,5l1,2.46c-.08.28-.17.56-.25.85L162.1,235l1.5,0c.29,1.11.58,2.22.86,3.33q.58,5.29,1.16,10.59l.12-2.93c-.28-2.64-.57-5.28-.85-7.92.05-3.27.1-6.55.17-9.84l6.29-.23q-2.73-32-5.6-63.94l.21-2.26-.72-8.16c-.18-.37-.35-.75-.53-1.12.1-.43.21-.85.31-1.28.12-1.89.23-3.78.36-5.67q-.4-4.62-.82-9.25l-.3-.91c-.07-.85-.15-1.7-.22-2.55.19-1.17.39-2.34.58-3.52q-.33-3.9-.68-7.81l-.36-1.5c.2-1.18.41-2.36.62-3.53l-.15-1.78c-.13-1.48-.26-3-.38-4.44l-.52-.52c.18-1.46.38-2.93.57-4.39L162.4,89.93l-.83.13c0-.56,0-1.13,0-1.7l-.82-.73,1.35-1.76-.81-9.26.66-.11q1.22,14.22,2.41,28.45l1.11,3.53c-.19.6-.37,1.2-.56,1.8l.42,5.11q.76,2,1.5,4.11c-.1.58-.21,1.17-.32,1.76.29,2.55.57,5.09.85,7.64l1.23,4.16c0,.59.09,1.18.13,1.76,0,.28-.1.55-.16.83q.38,4.68.73,9.38c.42,1.68.84,3.35,1.25,5,.23.27.46.53.7.79l-.51,1.77.63,8.54.54,1.67q1.07,14.52,2.1,29c.19-.87.38-1.74.58-2.61l.57,0-.27-4.06-.27-1.06.72-.91,0-3.44c.09-.58.19-1.16.28-1.74q-.09-3-.19-6l.3-1.74c0-.69-.09-1.38-.13-2.08l-.5-1.32c.26-.3.51-.61.76-.91,0-1.3,0-2.59,0-3.88s-.15-2.57-.23-3.85l.42,0c.07,1.29.15,2.57.23,3.86s.43,2.55.65,3.83l.41,0c-.11.59-.21,1.17-.31,1.75.07,1.14.14,2.29.2,3.43l.44.49.57,6.34c.16.56.32,1.13.49,1.69.19,1.14.39,2.28.58,3.41l.83.82c-.12.3-.23.59-.34.88l.27,5.16,1.2.8c-.23-3.15-.45-6.3-.68-9.45l.12-1.6c-.09-1.71-.18-3.42-.26-5.13.19-1.5.38-3,.58-4.5,0-.91-.09-1.82-.13-2.73s.19-1.64.29-2.46l-.57.9c.22-1.31.44-2.62.67-3.93-.11-2.15-.23-4.3-.34-6.45-.1-.57-.2-1.14-.29-1.71.22-1.16.45-2.33.69-3.49-.08-1.76-.17-3.51-.25-5.27l-.47-.73c.31-1.18.62-2.35.94-3.52-.13-2.79-.25-5.58-.38-8.38l-.46-.2c0-.58,0-1.15-.08-1.73l.41-1-.21-4.63-.66.5c0-.29,0-.57,0-.86l-.73-.81,1.33-1.14c0-.81-.08-1.63-.11-2.44H181q.21,4.66.41,9.32l.27,1c0,.52,0,1.05.07,1.58l-.22.16c.13,2.87.25,5.74.38,8.61l1,3.4c-.13.3-.27.59-.4.89.07,1.72.14,3.45.22,5.17.34,1.42.69,2.84,1,4.27l-.39.88q.13,3.45.28,6.9c.31.85.62,1.69.93,2.55l-.86-.83.92,2.55c0,1.15.09,2.3.13,3.45.33,1.43.65,2.85,1,4.28l.18,5.22c.09.56.18,1.12.26,1.68l.3,8.63q.3,3,.58,6l.33,4.31q.68,22.56,1.33,45.13c.43,1.26.86,2.52,1.28,3.78q-.42-14.76-.83-29.54l-.39-3.85c-.14-.86-.28-1.72-.43-2.58s-.05-1.73-.08-2.59h.36c0,.86,0,1.73.08,2.59q1.65-4.79,3.41-9.56c0-1.82-.06-3.64-.1-5.45l.38.25q-.33-13.41-.67-26.81c-.15-.57-.29-1.15-.44-1.72.3-1.74.61-3.47.93-5.21,0-1.59-.05-3.19-.08-4.79.06-.42.13-.84.19-1.27l-.48-3.45q.3-6.93.64-13.86c0-1.75,0-3.5-.08-5.25l.45,0,.06,4.61q.66,7.2,1.27,14.41l-.39,3.47c.08.28.15.57.22.86l.06,5.19q.45,2.16.87,4.32l-.33,1.92q.21,13.76.41,27.5H196l0-4.33h.95c0,1.44,0,2.88,0,4.32h.37c0-1.44,0-2.88,0-4.33h1V198h.56c0-1.44,0-2.88,0-4.33h.95c0,1.44,0,2.88,0,4.32h.38c0-1.45,0-2.9,0-4.35l1,0c0,1.45,0,2.89,0,4.33h.56c0-1.45,0-2.89,0-4.33h1l-.06,4.32h.38l.06-4.33h.95c0,1.45,0,2.89-.08,4.33h.57c0-1.48.05-3,.08-4.43l.76.12-.09,4.31.56,0c0-1.44.07-2.88.1-4.32l1,0c0,1.43-.08,2.87-.11,4.31H207l.12-4.37.95.08c0,1.44-.09,2.88-.13,4.32h.56c.05-1.44.09-2.88.14-4.32l.76,0-.15,4.36.38,0c.1-3.05.21-6.09.31-9.14l.45-7.25h.4c0,2.31.09,4.61.13,6.92-.1,2.59-.19,5.17-.29,7.76H211l-.21,5.46q1.48,4.65,2.89,9.29c.09-.57.17-1.15.26-1.72l.54,0-.21,4.3c-.21.57-.42,1.14-.62,1.7l-.21,4.31-.21.85q-.68,14.06-1.34,28.1C185.7,248.62,159.39,248.42,133.1,248.35Z"/><path class="cls-2" d="M211.63,248.72c.09-1.88.17-3.76.26-5.64h1.38q1.33-26.55,2.72-53.1l-.33-2.79,1.59.07-.3-2.59c.05-.86.1-1.72.14-2.58.2-.83.39-1.67.59-2.5l-.4-.94,1-3.39c0-1.72-.07-3.45-.11-5.17q.54-5.94,1.09-11.88l1-12.69c.27-2.37.53-4.74.8-7.11l.66-3.4-.57-1.77,1.33-3.33c-.05-1.44-.12-2.89-.18-4.33l.78-5.06q.58-5.58,1.19-11.14c-.1-.87-.2-1.75-.31-2.62.22-1,.45-1.92.67-2.87q.27-4.05.53-8.08l.49.06c-.17,2.5-.33,5-.5,7.5l.3,2.69c-.24,1.12-.47,2.25-.71,3.37-.17,3.72-.33,7.44-.51,11.16l.12,5.19c-.25,1.41-.5,2.82-.74,4.24.3,1.18.59,2.36.88,3.53l-1,1.63.21,3.47c0,2.23,0,4.47,0,6.7q-.23,6.54-.46,13.06c-.07,3.75-.13,7.49-.2,11.24q-.5,2.93-1,5.87c.2.87.41,1.75.61,2.62L222,179c.19,1.15.37,2.31.55,3.47,0,.67-.1,1.34-.14,2-.27,1-.54,2.06-.8,3.09l1.54.1c-.28,1.13-.55,2.25-.82,3.38q-1.72,26.07-3.41,52.11H220q.74-11.08,1.46-22.18c.64-3.11,1.28-6.22,1.94-9.32l.93-11.93-.3-.87c.12-.85.25-1.69.38-2.54l.19-.06.9-11.37-.8.31c.19-.84.39-1.68.58-2.53l.48-1.07c.06-.72.12-1.44.17-2.16s.23-1.22.35-1.83l.39,0c0,.29.09.58.13.86s-.05.57-.07.86c-.07.79-.13,1.59-.2,2.39l.57.21c-.08-.58-.16-1.16-.25-1.74.19-2.27.38-4.53.56-6.8l-.12-.87.27-3.4,1-1.63.3-3.43c-.19-.29-.37-.59-.55-.88l.21-2.55,1.05-2.46c.08-1,.17-2,.25-3l-.59-.48c.05-.57.1-1.14.14-1.7l1.07-2.46c.09-1.1.19-2.2.28-3.3,0-.32-.08-.65-.13-1,.22-.83.44-1.67.65-2.5.05-.58.11-1.17.16-1.75s-.05-1.12-.07-1.67c.16-.27.33-.53.5-.8l.63-7.06,1.3.45c-.12.56-.25,1.11-.37,1.67,0,.44.06.89.1,1.34l-.92.27-.3,3.39.36.91c-.2.54-.4,1.09-.59,1.64l-.15,1.69c.19.31.38.62.56.93l-.3,3.4c.06.86.12,1.73.19,2.59l-.66,2.49c-.07.85-.15,1.7-.23,2.55.18,1.16.35,2.33.52,3.49l-.77,1.62-.54,5.94c.29.6.57,1.2.85,1.8-.09,1-.18,2-.28,3l-.51,1.17c-.28,3.11-.56,6.21-.85,9.32l.59,0c0-1.13.07-2.27.11-3.4.16-.27.32-.54.47-.81l.32.89c-.11,1.07-.21,2.15-.31,3.22.14.64.27,1.27.41,1.91l-.78-.08q-.58,6.34-1.18,12.69l.3.88c-.06.56-.11,1.13-.16,1.69l-.45.82L228,212.73l3.91.23q2.48-7.44,5.08-14.8c.51,4.27,1,8.53,1.42,12.75q-2,16.2-3.9,32.38l2.21,0c.3-2.2.59-4.4.89-6.6l-1.09.8-.12-5.83,1.4.89,1.5-2.43q.63-4.92,1.28-9.85c-.21-.58-.43-1.16-.65-1.74-.11-1.4-.22-2.8-.34-4.2l1.71.49.85-1.11c.2-1.43.39-2.85.58-4.27l.86.24.3-2.15-1.1-1.26-.18-4.2c0-1.95-.1-3.91-.15-5.88.28,1.15.57,2.3.84,3.45l.73.08,1-1.55.9-6.57.44.89-.45,3.28c.08.29.16.58.25.87q.49-3.55,1-7.11l-.75-2.89c-.06-1.4-.12-2.81-.19-4.22,0-1.95,0-3.92,0-5.88.28.89.55,1.77.82,2.65.12.58.23,1.16.35,1.73l.57.09c.3-.79.61-1.58.92-2.36.42-1.61.85-3.21,1.28-4.82-.14-.28-.27-.56-.4-.83l.94-1.58q.94-6.44,1.88-12.87c.24-1.62.47-3.24.71-4.87l.44-.16q-1.32,9-2.63,17.91l.45,1-.62,1.56c-.14,1.37-.27,2.74-.41,4.12.14.85.27,1.71.4,2.57l.45.91c.4-.49.79-1,1.19-1.46l1.13-2.3-1.44,5.58c-.29,1.06-.58,2.12-.86,3.18s-.83,2.09-1.23,3.13l-1,1.52q-.4,2.85-.83,5.7l.55.08.6-4.07c.16-.25.32-.51.49-.76-.29,1.9-.57,3.79-.85,5.69v2.49l.42.88,1.2-.67,1.41-3.1c-.7,2.09-1.4,4.2-2.08,6.31l-1.44,2.3-1.13,1.53-.36,2.44,1.23.13-.48,3.24c-.07.81-.13,1.63-.19,2.45l.69.06,1.51-.67c-.45,1.05-.91,2.09-1.36,3.14l-.93,1.56-.52,0q-.67,4.45-1.33,8.91l.09,1.64c.22.83.43,1.65.64,2.47l1.79-.72c-.34,1.07-.67,2.13-1,3.19L246.17,237l-.49,0q-.48,3.24-1,6.46l2.12,0q1.38-8.42,2.79-16.83c0-.27,0-.54,0-.81.21-1.34.42-2.68.64-4l1-3.16,1.16-.7q5,.5,9.9,1.09c.24-1.23.47-2.46.71-3.69l-.31-.21.77-2.16c.09-.51.19-1,.29-1.53l1.42.88c.3-1.27.61-2.53.92-3.8.11-.24.22-.49.32-.73l.35,0-.3,1.49c1.46-.8,2.92-1.57,4.38-2.33q1.19-5.64,2.36-11.28l1.72-.36-.67,1.41c0,.4.07.81.11,1.21-.2.34-.39.69-.58,1l-.87-.19q-.85,4.13-1.73,8.25c1.05,1.23,2.08,2.46,3.1,3.67.11-.49.22-1,.32-1.47l.51.1-.81,3.67,1.68.3c-.15.66-.29,1.31-.44,2l.12,1c-.16.22-.33.44-.49.67l-.81,3.64c3.42.51,6.81,1,10.15,1.62l.15,1.45-.18,2.11-.9,3.64q-1.82,7.41-3.64,14.82l.58,0,1.71-4,1-2,.48,0,.81-1.31.32,0c.28-.43.55-.86.82-1.29l.48,0,.66-1.3.31.72c.27-1.08.55-2.16.82-3.24.29-.67.57-1.34.85-2,.33-1.1.67-2.19,1-3.28l.5-1.29.82-1.92.32.06,1-1.18,1-2.54.81-1.19c.1.25.2.5.31.75-.07.68-.13,1.34-.19,2l-.5,1.26c-.11.43-.22.86-.34,1.29l-.48.58c-.11.44-.23.87-.34,1.3l-.63-.11c0,.46.09.92.14,1.38l-.84,2.56c-.44,1.51-.89,3-1.33,4.53-.12.65-.24,1.31-.35,2l-.18,1.31.15.68c-.11.43-.22.86-.34,1.29l.63.7c0,.44,0,.87,0,1.3-.11.65-.23,1.29-.34,1.93-.08.32-.17.64-.25,1l1.46.38c-.37,1.38-.74,2.76-1.1,4.15"/><polygon class="cls-3" points="293.42 200.41 285.94 199.88 278.45 200.95 273.26 203.64 267.5 208.48 263.47 213.85 262.32 217.62 262.32 225.9 263.47 231.06 266.93 236.44 271.54 240.74 277.3 243.97 283.06 245.58 291.19 245.58 296.88 243.97 302.06 241.28 307.25 236.44 310.7 231.06 311.85 225.69 311.85 220.69 311.28 214.93 308.97 210.63 306.09 207.4 300.91 203.1 292.27 225.15 290.54 226.76 288.24 227.3 285.36 226.22 284.21 223.53 293.42 200.41"/><ellipse class="cls-3" cx="287.37" cy="220.58" rx="29.37" ry="27.42"/><rect class="cls-3" x="310.41" y="154" width="23.04" height="6.35" rx="1.94"/><path class="cls-3" d="M342.84,227.46l-40.92-42a.89.89,0,0,1,.07-1.3l4.6-3.9a1,1,0,0,1,1.38.06l40.91,42a.88.88,0,0,1-.06,1.3l-4.6,3.9A1,1,0,0,1,342.84,227.46Z"/><path class="cls-3" d="M342.67,220.58H365a0,0,0,0,1,0,0v7.53a0,0,0,0,1,0,0H344.11a1.44,1.44,0,0,1-1.44-1.44v-6.09A0,0,0,0,1,342.67,220.58Z"/><rect class="cls-3" x="305.81" y="173.86" width="61.05" height="7.27" rx="0.9"/><path class="cls-3" d="M340.78,222,369,164.43a1,1,0,0,1,1.32-.46l5.2,2.23a.91.91,0,0,1,.5,1.24L347.8,225a1,1,0,0,1-1.33.46l-5.2-2.22A.91.91,0,0,1,340.78,222Z"/><path class="cls-3" d="M356,163h26.76a1.27,1.27,0,0,1,1.27,1.27v3.44a1.27,1.27,0,0,1-1.27,1.27H356.18a2.57,2.57,0,0,1-2.57-2.57v-1A2.43,2.43,0,0,1,356,163Z"/><ellipse class="cls-3" cx="391.63" cy="220.58" rx="29.37" ry="27.42"/><ellipse class="cls-3" cx="287.95" cy="220.31" rx="22.46" ry="20.7"/><path class="cls-3" d="M284.09,228.17h0a4.29,4.29,0,0,0,5.43-2.19l28.68-67.31a2.11,2.11,0,0,0-1.29-2.81l-3.84-1.42a2.38,2.38,0,0,0-3,1.21L281.52,222.6A4.2,4.2,0,0,0,284.09,228.17Z"/><ellipse class="cls-3" cx="391.79" cy="220.58" rx="22.46" ry="20.7"/><path class="cls-3" d="M369,173.43l25.37,48.41a4.15,4.15,0,0,1-2.09,5.71h0a3.85,3.85,0,0,1-5-1.6l-25.74-49.13a.51.51,0,0,1,.26-.7l6.42-2.93A.57.57,0,0,1,369,173.43Z"/><path class="cls-3" d="M346.36,221.06H392a2.46,2.46,0,0,1,2.46,2.46v2.11A2.46,2.46,0,0,1,392,228.1H344.77a2.15,2.15,0,0,1-2.15-2.15v-1.14A3.75,3.75,0,0,1,346.36,221.06Z" transform="translate(737.12 449.17) rotate(-180)"/><path class="cls-2" d="M100,243.44a166.5,166.5,0,0,1-4.86-39.95c0-90.8,74.09-164.65,165.18-164.65s165.19,73.85,165.19,164.65a166.5,166.5,0,0,1-4.86,39.95h14.57a179.52,179.52,0,0,0,4.62-39.95c0-103.88-83.08-178.7-179.27-178.7-98.87,0-179.28,80.15-179.28,178.7a166.44,166.44,0,0,0,4.62,39.95Z"/><path class="cls-4" d="M421,114c12.67,24.95,27.15,64.13,22,110.43a175.31,175.31,0,0,1-3.4,20,10.16,10.16,0,0,1,4.37,2.66l7.53,7.51a194.82,194.82,0,0,0,6.8-50.85,198.81,198.81,0,0,0-24.05-94.43L467,88l-9-13q-18.28,12.21-36.6,24.65L415,104l.32.55c.39.68,1.07,1.55,1.68,2.45.23.33.41.63.78,1.23C419.13,110.41,420.68,113.39,421,114Z"/><path class="cls-2" d="M403.42,285.57a165.55,165.55,0,0,1-286.64.24h-16c29.88,57.39,90.12,96.86,159.35,96.86a179.81,179.81,0,0,0,159.35-96.86h-16Z"/><path class="cls-4" d="M434.76,297l-10.45-10.41A184.16,184.16,0,0,1,260.34,387a196.8,196.8,0,0,1-25.75-1.69c-4.85-.73-9.71-1.45-13.11-2.18A189.12,189.12,0,0,1,168,362.33c-2.09-1.23-3.43-1.83-4.69-1.66-2.24.3-3.65,2.31-4.06,2.87C156.64,367.1,145.5,377.83,128,394l-16,16,11,10q9-8.94,18-18,12.54-12.6,24.85-25.15c41.27,21.41,76,24.21,94.49,24.22a193.57,193.57,0,0,0,27.21-1.94A201.94,201.94,0,0,0,369,368,204.07,204.07,0,0,0,434.76,297Z"/><path class="cls-4" d="M510,339l-77.19-76.67L16,263V247l419.73,1.28a7,7,0,0,1,5.1,2.18L519,329Z"/><path class="cls-3" d="M482,407q.18-34.56.37-69.13l-57.09-57.14L51,281V266l377,.68a7,7,0,0,1,5.1,2.18l61.21,61.26a7.33,7.33,0,0,1,2,5.09q-.12,35.9-.22,71.79Z"/><ellipse class="cls-3" cx="343.09" cy="222.3" rx="8.91" ry="8.7"/></svg>